<svg width="210mm" height="297mm" version="1.1" viewBox="0 0 210 297" xmlns="http://www.w3.org/2000/svg">
 <title>warma1</title>
 <path d="m107.16 245.01c-5.0991-0.417-12.764-1.5911-16.888-2.5869-7.6963-1.8584-19.132-5.5828-24.598-8.0111-4.8334-2.1471-5.3142-2.2779-6.2465-1.6994-1.2765 0.7921-2.8922 0.24441-6.5287-2.2132-7.4799-5.055-14.419-14.447-17.888-24.212-4.2109-11.854-4.5731-26.758-0.95865-39.448 4.1347-14.517 10.434-26.363 19.996-37.602 1.307-1.5363 3.15-4.2437 4.0956-6.0164 0.94555-1.7727 2.1898-3.7065 2.765-4.2974 0.5752-0.59089 2.2992-2.6214 3.8312-4.5123 9.0237-11.138 25.875-20.816 39.56-22.721 5.7411-0.7991 8.8374-0.31266 8.8374 1.3884 0 1.3582-0.86555 1.6684-4.0597 1.4548-7.2074-0.48194-20.564 4.6126-30.697 11.708-3.7861 2.6514-9.9214 8.1415-10.749 9.6184-0.72982 1.3028-0.23408 1.0478 3.1997-1.6457 8.5784-6.7288 23.286-12.955 34.141-14.454 14.219-1.9626 28.723 0.97142 40.123 8.1166 3.906 2.4481 9.2442 6.966 11.658 9.8671 1.8708 2.2479 2.1282 2.4145 2.8236 1.8264 1.1121-0.94053 1.9785-0.80015 3.3001 0.53471 1.5266 1.5419 5.3402 7.9635 7.9406 13.371 1.9921 4.1423 2.08 4.5043 2.5358 10.447 0.25976 3.386 0.47432 8.6106 0.47682 11.61 2e-3 2.9996 0.17772 5.5539 0.38939 5.6761 0.21167 0.12231 1.7885-2.3021 3.5042-5.3874l3.1193-5.6097-0.21848-3.5044c-0.17206-2.7591-0.63024-4.5096-2.1547-8.2315-1.0649-2.6-2.4504-5.4629-3.0788-6.362-1.3433-1.922-1.132-3.3072 0.5045-3.3072 1.7558 0 3.7819 3.4828 7.2137 12.4 1.3551 3.5213 1.5791 7.2215 0.6045 9.989-0.92844 2.6366-6.0617 11.744-7.8638 13.952l-1.1956 1.4649 0.41628 7.6334c0.36864 6.7597 0.48295 7.4859 0.99866 6.3442 2.9801-6.5972 5.9067-9.177 9.2112-8.1194 1.4621 0.46793 3.4855 4.0385 4.2358 7.4748 0.28386 1.3 0.51124 4.9962 0.50528 8.2138-9e-3 4.9317-0.20052 6.5162-1.219 10.092-0.6645 2.3332-1.4855 4.6377-1.8245 5.1212-1.3722 1.9572-4.2086 3.25-9.2355 4.2096l-4.9296 0.941-3.3978 4.6095c-2.7409 3.7184-3.399 4.923-3.4045 6.2313-3e-3 0.89197-0.26756 2.1052-0.5863 2.6961-1.1932 2.2119-4.2484 1.139-3.1532-1.1073 2.0282-4.1601-2.1139-20.283-6.1129-23.794-2.7305-2.3973-5.2504-1.2721-8.4607 3.7778-2.1002 3.3038-2.861 5.1158-5.531 13.173-2.5412 7.6687-3.4427 12.162-3.1658 15.779 0.25795 3.3693-0.37161 4.5652-1.9798 3.7609-1.2578-0.62911-1.5218-2.1121-1.2127-6.8139 0.46251-7.0364 5.3554-22.3 8.9012-27.767 4.5432-7.0055 10.137-8.206 14.548-3.1223 2.7245 3.1398 4.5553 7.424 5.9883 14.013l0.59285 2.726 2.5035-3.5802c2.7453-3.9259 2.5634-3.8288 8.6013-4.5929 6.4257-0.8132 8.372-2.7835 9.4104-9.5266 1.2537-8.1418-0.2603-19.338-2.615-19.338-1.737 0-5.2476 6.9123-6.0112 11.836-0.39325 2.5357-0.87969 3.205-2.3294 3.205-2.3377 0-3.1393-3.158-3.6543-14.396-0.17327-3.7817-0.58778-7.6494-0.92111-8.5948-0.34923-0.99053-0.53258-2.9027-0.43268-4.5123 0.30442-4.9058-1.4519-14.384-4.1806-22.561-1.3243-3.9686-5.9477-12.957-8.0789-15.707l-1.4561-1.8786-0.78013 2.6634c-0.72638 2.48-2.5146 5.4657-3.9317 6.5648-0.33464 0.25955-1.646 0.7277-2.9141 1.0403-1.2749 0.31431-3.2092 1.2603-4.3268 2.1162-3.6824 2.8199-5.7424 1.9815-6.769-2.7552-0.67856-3.1309-2.2539-7.6611-2.7672-7.9576-0.2258-0.13043-0.53173 0.30261-0.67988 0.96225-2.5226 11.233-6.8282 21.581-10.764 25.87-0.69217 0.75434-0.9656 1.6866-1.0084 3.4379-0.0323 1.3216-0.12461 2.8864-0.20518 3.4773-0.0806 0.59089-0.27361 6.2957-0.429 12.677-0.15538 6.3817-0.37591 12.033-0.49003 12.558-0.28046 1.2902-1.7575 2.0086-2.8357 1.3793-0.45149-0.26351-1.9565-2.0368-3.3444-3.9408-3.1958-4.3838-3.6141-4.6404-5.1798-3.1772-1.4014 1.3096-2.551 1.4147-4.607 0.42113-1.9133-0.92464-6.7091-5.2363-9.6166-8.6458-1.8298-2.1457-2.2399-2.9122-2.0122-3.7603 0.53792-2.003 2.089-1.3278 5.0969 2.2186 1.5175 1.7892 3.968 4.3026 5.4456 5.5854l2.6866 2.3323 1.8232-1.5393c1.3778-1.1633 2.0695-1.4699 2.8315-1.2551 1.2647 0.3566 3.2632 2.053 4.9683 4.2172 0.85105 1.0802 1.3839 1.4579 1.5157 1.0744 0.11175-0.32533 0.31892-4.4592 0.46027-9.1863 0.62096-20.766 0.8099-22.132 3.0628-22.132 1.1665 0 5.1288-7.7358 6.8558-13.385 2.9916-9.7857 3.8839-15.654 2.539-16.697-1.0441-0.80977-0.82784-2.1083 0.44101-2.6486 0.90551-0.38557 1.3635-0.33897 2.2992 0.23399 0.64265 0.39351 1.1684 0.91502 1.1684 1.1589 0 0.24387 0.39242 1.2547 0.87205 2.2462 2.7326 5.6491 5.0771 11.705 5.107 13.191 0.0344 1.7067 0.76388 1.8291 2.7774 0.46596 1.0877-0.73638 2.8103-1.4633 3.8279-1.6154 1.0857-0.16226 2.2802-0.71012 2.8909-1.326 1.3125-1.3236 2.4585-4.9511 2.4585-7.7823 0-2.2879-0.12461-2.4763-4.2515-6.4328-5.0781-4.8682-14.295-9.2365-24.259-11.498-4.6596-1.0574-16.116-1.0558-21.383 3e-3 -8.4637 1.7014-18.355 5.7015-25.448 10.291-1.8773 1.2148-3.8517 2.4928-4.3874 2.8401-2.5587 1.6587-7.6197 5.6877-9.2064 7.329-1.6931 1.7514-1.7572 1.9253-1.4842 4.0258 0.15694 1.2074 0.41041 2.71 0.56328 3.3391 0.2168 0.89212 0.05711 1.2542-0.72581 1.6458-1.2836 0.64198-2.5128-0.29114-2.996-2.2743l-0.33496-1.3748-0.64182 1.9338c-1.8767 5.6546-2.6338 16.522-1.5029 21.573 0.76512 3.4176 3.0375 7.1256 5.1803 8.4529 1.3862 0.85868 2.5945 1.1816 5.0323 1.3449 2.5781 0.17267 3.3077 0.38237 3.7152 1.0678 0.27892 0.46912 0.86926 1.1086 1.3119 1.421 1.1211 0.7914 1.0037 1.9138-0.32167 3.0774-1.3337 1.1709-3.1614 4.6237-2.8496 5.3832 0.24569 0.59834 3.6898 1.5131 5.697 1.5131 0.72262 0 1.5506 0.2213 1.8401 0.49178 0.39507 0.36922 0.86797 0.35949 1.8974-0.039 0.75416-0.29194 1.8003-0.40352 2.3248-0.24796 1.6589 0.49205 1.0972 1.8176-1.5426 3.6401-2.7343 1.8877-3.9416 3.2403-3.9416 4.4158 0 0.88452 1.7917 1.048 3.2874 0.29988 0.7273-0.36377 1.1181-0.30296 1.8091 0.28147 0.82095 0.69432 0.93912 0.69667 1.7224 0.0343 0.98243-0.83089 1.9799-0.91131 2.7204-0.21932 1.3747 1.2847 1.292-4.6282-0.0846-6.0498-1.3431-1.3869 0.26773-3.0646 2.0747-2.1608 1.4165 0.70845 2.1395 2.1644 2.4132 4.8595 0.35676 3.5123-0.66165 5.539-2.6901 5.3535-1.2472-0.11402-1.6956 0.17456-3.524 2.268-1.1522 1.3193-2.6257 3.1564-3.2743 4.0826-1.2272 1.7522-2.1295 4.2912-1.4152 3.9822 0.22538-0.0975 0.99275-0.44974 1.7053-0.78281 1.1509-0.53794 1.4698-0.51778 2.8576 0.18068 1.4337 0.72156 1.6527 0.73077 2.6631 0.11207 2.7094-1.6591 5.8417-5.4611 4.4991-5.4611-0.57021 0-0.99182-1.1631-0.68897-1.9006 0.63507-1.5466 3.5828-0.88835 6.4101 1.4315 0.83969 0.68899 1.9542 1.3795 2.4766 1.5345 1.1262 0.33406 1.2454 1.6084 0.22442 2.4002-0.60137 0.46643-1.0635 0.44561-2.7014-0.12165l-1.9759-0.68438-2.7017 2.5715c-4.0146 3.8212-7.0759 4.9643-9.0968 3.3969-0.52554-0.40761-0.97484-0.36774-2.1261 0.18866-3.0095 1.4544-5.9076-1.1758-4.9355-4.4794 0.5279-1.7941 1.901-4.4206 2.7503-5.2609 1.9854-1.9645 1.9738-2.0976-0.15949-1.8306-1.6352 0.20473-2.3067 0.063-3.6042-0.76097-2.3874-1.516-2.7346-3.2109-1.2145-5.9278 1.3276-2.3728 1.3629-2.3173-1.7893-2.8105-5.0076-0.7835-6.5591-3.91-4.1473-8.3579 0.62747-1.1572 1.3517-2.2258 1.6094-2.3746 1.0166-0.58719 0.35392-0.97367-2.1391-1.2475-6.4337-0.70666-10.029-4.1644-12.338-11.865-0.90916-3.0322-1.1816-10.804-0.55729-15.9l0.34219-2.7933-0.97625 1.072c-1.6983 1.8647-6.9081 10.346-9.4452 15.376-8.9794 17.803-10.845 37.581-5.0501 53.542 2.3186 6.3861 3.809 9.151 7.686 14.258 3.215 4.2351 8.5737 9.0726 9.299 8.3947 0.87056-0.81359 2.0612-0.5139 6.8141 1.7151 14.161 6.6413 31.213 11.465 43.161 12.21 7.3471 0.45823 17.141 0.5249 20.969 0.14277 15.808-1.5785 25.1-3.9321 27.695-7.0147 0.51203-0.60832 1.1581-2.1135 1.4357-3.3448 1.3702-6.0774 2.8851-8.1352 4.7239-6.4168 0.71905 0.67199 0.8082 1.0277 0.42515 1.6966-0.26658 0.46551-0.93273 2.4713-1.4803 4.4572-1.3388 4.8556-1.89 5.7328-4.6943 7.4707-4.0055 2.4823-10.874 4.2792-21.454 5.6127-4.7457 0.59815-21.779 1.1258-25.78 0.79855zm61.35-108.86c-0.42161-0.98475-0.85279-1.7099-0.95816-1.6114-0.10532 0.0984 0.15329 0.98477 0.57496 1.9695 0.42161 0.98475 0.85279 1.7099 0.95818 1.6114 0.10532-0.0984-0.15329-0.98477-0.57498-1.9695zm-83.331 37.696c-1.0638-0.99414-0.57976-1.9558 1.4284-2.838 1.0891-0.47843 2.2602-1.1851 2.6023-1.5705 0.53532-0.6028 0.48356-0.79136-0.37072-1.3505-1.1408-0.74676-1.3252-2.5388-0.29915-2.9068 0.83322-0.29881 2.9048 0.38562 4.0188 1.3277 1.8828 1.5924 0.46036 4.7035-2.9981 6.557-2.6225 1.4056-3.5385 1.5688-4.3815 0.78096zm63.142-16.316c-1.604-1.1791-2.5374-3.2495-2.5284-5.6081 9e-3 -2.2415 0.2417-2.5961 2.2922-3.4862 2.3116-1.0035 10.355-2.3716 11.236-1.911 0.7938 0.41515 0.95618 1.6514 0.3007 2.2893-0.23073 0.22453-0.94104 1.6182-1.5785 3.097-2.5006 5.8013-6.4043 8.0577-9.7217 5.6191zm3.8062-2.7496c1.0499-0.68721 3.0953-3.973 2.7021-4.3405-0.11957-0.11175-1.501 0.033-3.0699 0.32142l-2.8526 0.52448 0.25656 1.4775c0.2481 1.4288 1.0145 2.6901 1.6346 2.6901 0.16563 0 0.76388-0.30285 1.3294-0.67301zm-11.558-6.1293c-1.5756-1.627-0.27507-8.2501 1.9973-10.172 2.195-1.8564 7.5038 0.80297 8.772 4.3942 0.91435 2.5891-1.5748 3.8059-3.0976 1.5142-1.1633-1.7507-2.5437-3.1156-3.1509-3.1156-0.83982 0-1.6775 2.1236-1.9495 4.942-0.30839 3.1959-1.1052 3.9512-2.5713 2.4372zm14.046-5.7462c-0.69691-0.6513-0.71982-4.3929-0.0344-5.6364 1.0355-1.8789 2.3739-2.8725 3.8693-2.8725 1.9814 0 3.5856 1.2786 4.5427 3.6207 1.0126 2.4778 0.82831 3.8559-0.53973 4.0374-0.85352 0.11321-1.2047-0.2276-1.9833-1.9252-0.52038-1.1346-1.1918-2.2082-1.492-2.3858-0.86331-0.51072-1.6954 0.93773-1.6954 2.9511 0 1.376-0.22308 1.9482-0.88946 2.2814-1.1085 0.55441-1.1086 0.55441-1.7776-0.0708zm2.9572-29.504c-0.79793-0.82397-0.60199-2.1598 0.33388-2.2763 0.2891-0.0361 0.73254-0.11044 0.98545-0.16531 0.25291-0.0549 0.7185-0.12214 1.0346-0.14943 1.1545-0.0996 0.52734-1.6329-1.3795-3.3728-2.8287-2.5811-10.411-6.7426-15.885-8.7186-2.6053-0.94046-5.0295-1.7099-5.387-1.7099s-1.0442-0.39543-1.526-0.87872l-0.87599-0.87874-0.26842 1.2542c-0.3022 1.4121-1.4924 2.0542-2.4422 1.3175-0.81254-0.6302-0.81031-3.0968 5e-3 -4.8319 0.99973-2.1292 1.5573-3.7228 2.3276-6.6532 1.6039-6.101 0.81347-7.1843-5.1974-7.1228-2.1857 0.02241-5.7329 0.37336-7.8826 0.78003-5.092 0.96328-12.416 2.8711-12.416 3.2342 0 0.15658 0.70104 0.52165 1.5579 0.8112 3.925 1.3264 7.9158 5.5243 8.1983 8.6237 0.25747 2.8249-2.7431 2.9573-3.3578 0.14813-0.15903-0.72656-0.78423-1.9033-1.3894-2.615-1.1817-1.3896-5.2862-3.6338-7.5381-4.1214-3.3364-0.72249-4.4454-2.69-2.4269-4.3052 3.5604-2.849 23.578-6.6812 29.488-5.6452 1.7212 0.30178 3.3098 1.4599 4.3234 3.152 1.1197 1.8692 0.60183 6.2879-1.4486 12.359-0.92912 2.7512-0.93552 2.7099 0.38322 2.4743 2.6202-0.4681 14.361 4.2795 20.46 8.2732 4.5838 3.0019 6.4715 5.2228 6.4715 7.6142 0 3.2082-4.125 5.4913-6.1476 3.4026z" stroke-width=".44454"/>
</svg>
